<svg width="36" height="36" viewBox="0 0 36 36" fill="none" xmlns="http://www.w3.org/2000/svg">
<path d="M20.6667 15.3334C21.7276 15.3334 22.745 15.7548 23.4951 16.5049C24.2453 17.2551 24.6667 18.2725 24.6667 19.3334V24H22V19.3334C22 18.9798 21.8595 18.6406 21.6095 18.3906C21.3594 18.1405 21.0203 18 20.6667 18C20.3131 18 19.9739 18.1405 19.7239 18.3906C19.4738 18.6406 19.3334 18.9798 19.3334 19.3334V24H16.6667V19.3334C16.6667 18.2725 17.0881 17.2551 17.8383 16.5049C18.5884 15.7548 19.6058 15.3334 20.6667 15.3334Z" stroke="#52525C" stroke-width="1.33333" stroke-linecap="round" stroke-linejoin="round"/>
<path d="M14 16H11.3333V24H14V16Z" stroke="#52525C" stroke-width="1.33333" stroke-linecap="round" stroke-linejoin="round"/>
<path d="M12.6666 14C13.403 14 14 13.4031 14 12.6667C14 11.9303 13.403 11.3334 12.6666 11.3334C11.9303 11.3334 11.3333 11.9303 11.3333 12.6667C11.3333 13.4031 11.9303 14 12.6666 14Z" stroke="#52525C" stroke-width="1.33333" stroke-linecap="round" stroke-linejoin="round"/>
</svg>
