<svg width="36" height="36" viewBox="0 0 36 36" fill="none" xmlns="http://www.w3.org/2000/svg">
<path d="M11.6667 21.3333C11.201 19.1355 11.201 16.8645 11.6667 14.6667C11.7279 14.4435 11.8461 14.24 12.0097 14.0764C12.1734 13.9128 12.3768 13.7945 12.6 13.7333C16.1756 13.141 19.8244 13.141 23.4 13.7333C23.6232 13.7945 23.8266 13.9128 23.9903 14.0764C24.1539 14.24 24.2721 14.4435 24.3333 14.6667C24.7991 16.8645 24.7991 19.1355 24.3333 21.3333C24.2721 21.5565 24.1539 21.7599 23.9903 21.9236C23.8266 22.0872 23.6232 22.2055 23.4 22.2667C19.8244 22.8591 16.1756 22.8591 12.6 22.2667C12.3768 22.2055 12.1734 22.0872 12.0097 21.9236C11.8461 21.7599 11.7279 21.5565 11.6667 21.3333Z" stroke="#52525C" stroke-width="1.33333" stroke-linecap="round" stroke-linejoin="round"/>
<path d="M16.6667 20L20 18L16.6667 16V20Z" stroke="#52525C" stroke-width="1.33333" stroke-linecap="round" stroke-linejoin="round"/>
</svg>
